<svg width="176" height="52" viewBox="0 0 176 52" fill="none" xmlns="http://www.w3.org/2000/svg">
<g clip-path="url(#clip0)">
<path fill-rule="evenodd" clip-rule="evenodd" d="M161.805 42.932H166.817L175.489 20.9551H170.528L166.944 31.9007L163.167 20.9551H157.63L164.223 36.8296L161.805 42.932ZM136.928 26.1721V37.4374H131.871V20.9551H135.424L136.48 22.3949C137.856 21.2432 139.328 20.5707 141.024 20.5707C143.297 20.5707 145.025 21.2432 146.081 22.9081C147.617 21.499 149.25 20.5707 151.331 20.5707C155.235 20.5707 157.507 22.5876 157.507 28.0603V37.4374H152.451V28.6366C152.451 26.1082 151.426 25.3717 149.794 25.3717C148.834 25.3717 148.034 25.6274 147.137 26.2037C147.202 26.7799 147.234 27.3878 147.234 28.0603V37.4374H142.177V28.6366C142.177 26.1082 141.152 25.3717 139.488 25.3717C138.56 25.3717 137.792 25.5959 136.928 26.1721ZM119.291 27.5804H125.789C125.436 25.4364 124.284 24.4118 122.556 24.4118C121.083 24.4118 119.676 25.2762 119.291 27.5804ZM122.908 37.7579C118.043 37.7579 114.138 35.3574 114.138 29.0202C114.138 23.0991 117.915 20.5391 122.268 20.5391C127.517 20.5391 129.853 24.2192 129.853 30.0125H119.259C119.612 32.8605 121.372 33.6933 123.709 33.6933C125.968 33.6933 127.736 33.1357 129.104 32.2155L128.417 36.2266C127.112 37.235 125.545 37.7579 122.908 37.7579ZM104.079 33.5015C105.23 33.5015 106.095 33.3089 106.991 32.6372V25.468C106.191 24.9873 105.392 24.7639 104.239 24.7639C101.775 24.7639 100.366 26.4279 100.366 29.212C100.366 31.933 101.807 33.5015 104.079 33.5015ZM107.983 36.2217C106.671 37.214 105.167 37.8218 103.023 37.8218C98.5097 37.8218 95.2456 35.0377 95.2456 29.3083C95.2456 23.6114 98.9904 20.5391 103.791 20.5391C104.911 20.5391 105.999 20.6994 106.991 21.083V14.087H112.048V37.4374H108.847L107.983 36.2217ZM73.8191 27.6759V15.4605H79.0677V27.5804C79.0677 31.933 81.0198 32.829 83.7084 32.829C86.6213 32.829 88.125 31.5486 88.125 27.5804V15.4605H93.406V27.6759C93.406 34.8774 90.2698 37.8857 83.4527 37.8857C77.1155 37.8857 73.8191 35.2934 73.8191 27.6759Z" fill="#645A53"/>
<path fill-rule="evenodd" clip-rule="evenodd" d="M60.4424 28.5918C60.2296 28.421 59.99 28.3061 59.7294 28.2567C58.19 29.7912 56.3116 31.4075 54.6435 32.4936C53.8738 33.0051 52.9059 33.2609 52.2649 33.2609C50.7894 33.2609 50.1484 31.8543 49.9558 29.618C49.6992 26.6146 49.526 23.017 49.526 17.4569C49.526 11.7542 48.2319 7.8775 44.7841 7.57319C44.6384 7.56024 44.4911 7.55133 44.3373 7.55133C42.2209 7.55133 41.1947 8.63747 39.8479 11.386C38.6938 13.7501 36.8979 17.2011 33.5634 23.7196C30.6773 29.3437 27.4707 34.3284 24.7124 37.7795C23.9443 38.7361 23.3373 39.3933 22.7668 39.7672C22.3856 40.0181 22.0197 40.1435 21.6345 40.1435C20.5459 40.1435 19.7511 39.2249 19.4857 37.0858C19.4226 36.5776 19.3894 36.0005 19.3894 35.3506C19.3894 30.9413 21.0574 23.7835 23.9427 13.2386C26.0592 5.57006 25.1616 0.330383 20.5435 0.330383C20.5362 0.330383 20.5289 0.330383 20.5216 0.330383C20.5119 0.330383 20.5022 0.330383 20.4917 0.330383L20.4885 0.331193C19.4428 0.343333 18.576 0.722105 17.7407 1.37929C16.9184 2.02676 16.0953 3.42531 15.3273 5.30541C14.4613 7.42346 9.1957 17.9854 0.814966 23.4266C0.716227 25.4953 1.88734 27.5631 4.26034 27.7873C6.42047 27.9921 7.95417 27.0816 9.92897 25.7551C9.78086 26.4147 9.64408 27.0314 9.51944 27.5955C9.37214 28.2616 9.24669 28.8362 9.14634 29.3C8.9958 29.9903 8.90029 30.4347 8.87197 30.5577C8.5976 31.8162 8.40174 33.0116 8.27467 34.1463C7.09303 44.709 11.9887 49.9212 17.7221 49.9212C18.6804 49.9212 19.6297 49.8071 20.5726 49.5675C26.8895 47.9658 32.9709 40.7198 40.1692 24.0393C40.06 25.8538 40.0486 27.5486 40.1271 29.1211C40.6014 38.6811 44.3827 41.5494 49.7251 41.5494C53.7654 41.5494 57.549 39.441 59.4729 36.8204C60.8843 34.967 61.4614 32.9218 61.4614 31.3241C61.4614 30.0842 61.0681 29.0944 60.4424 28.5918Z" fill="#EA5252"/>
</g>
<defs>
<clipPath id="clip0">
<rect width="175" height="50.7378" fill="white" transform="translate(0.809082 0.329895)"/>
</clipPath>
</defs>
</svg>
